REM DIRINDEX 1\2\4,1\2\5,1\2\6,1\3\7,1\3\8,1\3\9,1\3\10
REM DIRNAME folder01,folder02,folder03,folder04,folder05,folder06,folder07,folder08,folder09,folder10
TITLE ""
FILE "b_192.mp3" MP3
  TRACK 01 AUDIO
    TITLE "0:"
    INDEX 01 00:00:00
  TRACK 02 AUDIO
    TITLE "7:cjc057_09925"
    INDEX 01 00:00:09
  TRACK 03 AUDIO
    TITLE "0:"
    INDEX 01 00:01:50
  TRACK 04 AUDIO
    TITLE "8:cjc057_09926"
    INDEX 01 00:02:08
  TRACK 05 AUDIO
    TITLE "0:"
    INDEX 01 00:03:19
  TRACK 06 AUDIO
    TITLE "9:cjc057_09927"
    INDEX 01 00:03:63
  TRACK 07 AUDIO
    TITLE "0:"
    INDEX 01 00:07:68
  TRACK 08 AUDIO
    TITLE "7:cjc057_09928"
    INDEX 01 00:09:00
  TRACK 09 AUDIO
    TITLE "0:"
    INDEX 01 00:10:39
  TRACK 10 AUDIO
    TITLE "8:cjc057_09929"
    INDEX 01 00:10:70
  TRACK 11 AUDIO
    TITLE "0:"
    INDEX 01 00:13:26
  TRACK 12 AUDIO
    TITLE "9:cjc057_09930"
    INDEX 01 00:13:73
  TRACK 13 AUDIO
    TITLE "0:"
    INDEX 01 00:18:23
  TRACK 14 AUDIO
    TITLE "7:cjc057_09931"
    INDEX 01 00:19:32
  TRACK 15 AUDIO
    TITLE "0:"
    INDEX 01 00:20:65
  TRACK 16 AUDIO
    TITLE "8:cjc057_09932"
    INDEX 01 00:21:23
  TRACK 17 AUDIO
    TITLE "0:"
    INDEX 01 00:22:60
  TRACK 18 AUDIO
    TITLE "9:cjc057_09933"
    INDEX 01 00:23:28
  TRACK 19 AUDIO
    TITLE "0:"
    INDEX 01 00:27:45
  TRACK 20 AUDIO
    TITLE "7:cjc057_09934"
    INDEX 01 00:28:53
  TRACK 21 AUDIO
    TITLE "0:"
    INDEX 01 00:29:72
  TRACK 22 AUDIO
    TITLE "8:cjc057_09935"
    INDEX 01 00:30:32
  TRACK 23 AUDIO
    TITLE "0:"
    INDEX 01 00:31:53
  TRACK 24 AUDIO
    TITLE "9:cjc057_09936"
    INDEX 01 00:32:19
  TRACK 25 AUDIO
    TITLE "0:"
    INDEX 01 00:36:05
  TRACK 26 AUDIO
    TITLE "7:cjc057_09937"
    INDEX 01 00:37:14
  TRACK 27 AUDIO
    TITLE "0:"
    INDEX 01 00:38:51
  TRACK 28 AUDIO
    TITLE "8:cjc057_09938"
    INDEX 01 00:39:09
  TRACK 29 AUDIO
    TITLE "0:"
    INDEX 01 00:41:53
  TRACK 30 AUDIO
    TITLE "9:cjc057_09939"
    INDEX 01 00:42:21
  TRACK 31 AUDIO
    TITLE "0:"
    INDEX 01 00:45:71
  TRACK 32 AUDIO
    TITLE "7:cjc057_09940"
    INDEX 01 00:47:05
  TRACK 33 AUDIO
    TITLE "0:"
    INDEX 01 00:48:30
  TRACK 34 AUDIO
    TITLE "8:cjc057_09941"
    INDEX 01 00:48:65
  TRACK 35 AUDIO
    TITLE "0:"
    INDEX 01 00:51:44
  TRACK 36 AUDIO
    TITLE "9:cjc057_09942"
    INDEX 01 00:52:12
  TRACK 37 AUDIO
    TITLE "0:"
    INDEX 01 00:55:38
  TRACK 38 AUDIO
    TITLE "7:cjc057_09943"
    INDEX 01 00:56:49
  TRACK 39 AUDIO
    TITLE "0:"
    INDEX 01 00:58:01
  TRACK 40 AUDIO
    TITLE "8:cjc057_09944"
    INDEX 01 00:58:36
  TRACK 41 AUDIO
    TITLE "0:"
    INDEX 01 01:00:04
  TRACK 42 AUDIO
    TITLE "9:cjc057_09945"
    INDEX 01 01:00:51
  TRACK 43 AUDIO
    TITLE "0:"
    INDEX 01 01:04:13
  TRACK 44 AUDIO
    TITLE "7:cjc057_09946"
    INDEX 01 01:05:19
  TRACK 45 AUDIO
    TITLE "0:"
    INDEX 01 01:06:32
  TRACK 46 AUDIO
    TITLE "8:cjc057_09947"
    INDEX 01 01:06:67
  TRACK 47 AUDIO
    TITLE "0:"
    INDEX 01 01:08:25
  TRACK 48 AUDIO
    TITLE "9:cjc057_09948"
    INDEX 01 01:08:72
  TRACK 49 AUDIO
    TITLE "0:"
    INDEX 01 01:13:32
  TRACK 50 AUDIO
    TITLE "7:cjc057_09949"
    INDEX 01 01:14:41
  TRACK 51 AUDIO
    TITLE "0:"
    INDEX 01 01:15:72
  TRACK 52 AUDIO
    TITLE "8:cjc057_09950"
    INDEX 01 01:16:30
  TRACK 53 AUDIO
    TITLE "0:"
    INDEX 01 01:17:33
  TRACK 54 AUDIO
    TITLE "9:cjc057_09951"
    INDEX 01 01:18:00
  TRACK 55 AUDIO
    TITLE "0:"
    INDEX 01 01:22:17
  TRACK 56 AUDIO
    TITLE "7:cjc057_09952"
    INDEX 01 01:23:28
  TRACK 57 AUDIO
    TITLE "0:"
    INDEX 01 01:24:55
  TRACK 58 AUDIO
    TITLE "8:cjc057_09953"
    INDEX 01 01:25:13
  TRACK 59 AUDIO
    TITLE "0:"
    INDEX 01 01:26:64
  TRACK 60 AUDIO
    TITLE "9:cjc057_09954"
    INDEX 01 01:27:38
  TRACK 61 AUDIO
    TITLE "0:"
    INDEX 01 01:31:22
  TRACK 62 AUDIO
    TITLE "7:cjc057_09955"
    INDEX 01 01:32:29
  TRACK 63 AUDIO
    TITLE "0:"
    INDEX 01 01:33:54
  TRACK 64 AUDIO
    TITLE "8:cjc057_09956"
    INDEX 01 01:34:12
  TRACK 65 AUDIO
    TITLE "0:"
    INDEX 01 01:36:41
  TRACK 66 AUDIO
    TITLE "9:cjc057_09957"
    INDEX 01 01:37:09
  TRACK 67 AUDIO
    TITLE "0:"
    INDEX 01 01:41:09
  TRACK 68 AUDIO
    TITLE "7:cjc057_09958"
    INDEX 01 01:42:16
  TRACK 69 AUDIO
    TITLE "0:"
    INDEX 01 01:43:37
  TRACK 70 AUDIO
    TITLE "8:cjc057_09959"
    INDEX 01 01:43:72
  TRACK 71 AUDIO
    TITLE "0:"
    INDEX 01 01:45:16
  TRACK 72 AUDIO
    TITLE "9:cjc057_09960"
    INDEX 01 01:45:61
  TRACK 73 AUDIO
    TITLE "0:"
    INDEX 01 01:48:63
